<svg version="1.1" viewBox="0.0 0.0 960.0 720.0" fill="none" stroke="none" stroke-linecap="square" stroke-miterlimit="10" xmlns:xlink="http://www.w3.org/1999/xlink" xmlns="http://www.w3.org/2000/svg"><clipPath id="p.0"><path d="m0 0l960.0 0l0 720.0l-960.0 0l0 -720.0z" clip-rule="nonzero"/></clipPath><g clip-path="url(#p.0)"><path fill="#000000" fill-opacity="0.0" d="m0 0l960.0 0l0 720.0l-960.0 0z" fill-rule="evenodd"/><path fill="#cfe2f3" d="m290.12598 50.795696l0 0c0 -11.637348 9.433929 -21.071287 21.07129 -21.071287l359.6527 0c5.58844 0 10.947998 2.220005 14.899658 6.1716366c3.9515991 3.9516335 6.171631 9.311199 6.171631 14.899651l0 84.28262c0 11.637344 -9.43396 21.07129 -21.07129 21.07129l-359.6527 0c-11.63736 0 -21.07129 -9.433945 -21.07129 -21.07129z" fill-rule="evenodd"/><path fill="#000000" d="m333.3643 81.017006l0 -33.265625l20.3125 0l0 3.984375l-15.65625 0l0 9.890625l13.921875 0l0 3.890625l-13.921875 0l0 11.515625l16.84375 0l0 3.984375l-21.5 0zm27.1268 -24.234375q1.53125 -0.390625 4.078125 -0.8125q2.546875 -0.4375 5.859375 -0.4375q2.96875 0 4.9375 0.84375q1.96875 0.828125 3.140625 2.34375q1.1875 1.515625 1.65625 3.625q0.484375 2.109375 0.484375 4.65625l0 14.015625l-4.46875 0l0 -13.0625q0 -2.296875 -0.3125 -3.921875q-0.3125 -1.640625 -1.03125 -2.640625q-0.71875 -1.015625 -1.921875 -1.46875q-1.1875 -0.453125 -2.96875 -0.453125q-0.71875 0 -1.484375 0.046875q-0.765625 0.046875 -1.46875 0.125q-0.703125 0.0625 -1.25 0.15625q-0.546875 0.09375 -0.796875 0.140625l0 21.078125l-4.453125 0l0 -24.234375zm38.395813 24.8125q-3.03125 0 -5.3125 -0.953125q-2.265625 -0.96875 -3.828125 -2.6875q-1.5625 -1.734375 -2.328125 -4.109375q-0.765625 -2.375 -0.765625 -5.265625q0 -2.875 0.828125 -5.265625q0.84375 -2.40625 2.375 -4.15625q1.546875 -1.75 3.765625 -2.734375q2.234375 -0.984375 4.984375 -0.984375q1.671875 0 3.34375 0.28125q1.6875 0.28125 3.21875 0.90625l-1.0 3.796875q-1.015625 -0.484375 -2.34375 -0.765625q-1.3125 -0.28125 -2.796875 -0.28125q-3.734375 0 -5.734375 2.359375q-1.984375 2.34375 -1.984375 6.84375q0 2.015625 0.453125 3.703125q0.453125 1.671875 1.4375 2.875q0.984375 1.203125 2.515625 1.859375q1.546875 0.640625 3.75 0.640625q1.78125 0 3.21875 -0.328125q1.4375 -0.34375 2.25 -0.734375l0.625 3.75q-0.390625 0.234375 -1.109375 0.453125q-0.71875 0.21875 -1.625 0.390625q-0.90625 0.171875 -1.953125 0.28125q-1.03125 0.125 -1.984375 0.125zm32.883545 -13.0625q0 2.984375 -0.875 5.390625q-0.859375 2.390625 -2.421875 4.125q-1.546875 1.71875 -3.71875 2.65625q-2.15625 0.9375 -4.703125 0.9375q-2.546875 0 -4.703125 -0.9375q-2.15625 -0.9375 -3.71875 -2.65625q-1.5625 -1.734375 -2.421875 -4.125q-0.859375 -2.40625 -0.859375 -5.390625q0 -2.921875 0.859375 -5.34375q0.859375 -2.421875 2.421875 -4.15625q1.5625 -1.734375 3.71875 -2.65625q2.15625 -0.9375 4.703125 -0.9375q2.546875 0 4.703125 0.9375q2.171875 0.921875 3.71875 2.65625q1.5625 1.734375 2.421875 4.15625q0.875 2.421875 0.875 5.34375zm-4.65625 0q0 -4.21875 -1.90625 -6.6875q-1.890625 -2.46875 -5.15625 -2.46875q-3.265625 0 -5.15625 2.46875q-1.890625 2.46875 -1.890625 6.6875q0 4.234375 1.890625 6.703125q1.890625 2.46875 5.15625 2.46875q3.265625 0 5.15625 -2.46875q1.90625 -2.46875 1.90625 -6.703125zm27.070068 -7.203125q-0.8125 -0.671875 -2.359375 -1.28125q-1.53125 -0.625 -3.359375 -0.625q-1.90625 0 -3.28125 0.703125q-1.375 0.6875 -2.234375 1.90625q-0.859375 1.21875 -1.25 2.90625q-0.375 1.671875 -0.375 3.59375q0 4.375 2.15625 6.75q2.15625 2.375 5.765625 2.375q1.8125 0 3.03125 -0.171875q1.234375 -0.171875 1.90625 -0.359375l0 -15.796875zm0 -16.796875l4.46875 -0.765625l0 36.53125q-1.546875 0.4375 -3.953125 0.859375q-2.390625 0.4375 -5.515625 0.4375q-2.875 0 -5.1875 -0.90625q-2.296875 -0.921875 -3.9375 -2.59375q-1.625 -1.6875 -2.515625 -4.109375q-0.875 -2.421875 -0.875 -5.453125q0 -2.875 0.734375 -5.265625q0.75 -2.40625 2.1875 -4.125q1.4375 -1.734375 3.515625 -2.6875q2.09375 -0.96875 4.796875 -0.96875q2.15625 0 3.8125 0.578125q1.65625 0.5625 2.46875 1.09375l0 -12.625zm10.756439 24.046875q0 -3.3125 0.953125 -5.78125q0.96875 -2.46875 2.546875 -4.09375q1.578125 -1.640625 3.640625 -2.453125q2.0625 -0.8125 4.234375 -0.8125q5.03125 0 7.71875 3.140625q2.6875 3.140625 2.6875 9.578125q0 0.28125 0 0.75q0 0.453125 -0.046875 0.828125l-17.078125 0q0.28125 3.890625 2.25 5.90625q1.96875 2.015625 6.140625 2.015625q2.359375 0 3.96875 -0.40625q1.609375 -0.40625 2.421875 -0.796875l0.625 3.75q-0.8125 0.421875 -2.859375 0.90625q-2.046875 0.484375 -4.625 0.484375q-3.265625 0 -5.640625 -0.984375q-2.375 -0.984375 -3.921875 -2.703125q-1.53125 -1.734375 -2.28125 -4.109375q-0.734375 -2.375 -0.734375 -5.21875zm17.125 -2.4375q0.046875 -3.03125 -1.515625 -4.96875q-1.546875 -1.953125 -4.28125 -1.953125q-1.546875 0 -2.71875 0.609375q-1.171875 0.59375 -2.0 1.5625q-0.8125 0.953125 -1.265625 2.203125q-0.453125 1.25 -0.59375 2.546875l12.375 0zm37.40445 10.265625q-0.484375 -1.15625 -1.28125 -2.921875q-0.796875 -1.78125 -1.703125 -3.84375q-0.90625 -2.0625 -1.9375 -4.25q-1.03125 -2.1875 -1.953125 -4.125q-0.90625 -1.953125 -1.703125 -3.484375q-0.78125 -1.53125 -1.265625 -2.34375q-0.53125 5.65625 -0.875 12.265625q-0.328125 6.59375 -0.5625 13.3125l-4.5625 0q0.1875 -4.3125 0.421875 -8.703125q0.25 -4.40625 0.5625 -8.640625q0.3125 -4.25 0.671875 -8.28125q0.359375 -4.03125 0.78125 -7.640625l4.09375 0q1.296875 2.109375 2.78125 5.0q1.484375 2.875 2.96875 6.015625q1.484375 3.140625 2.875 6.296875q1.40625 3.140625 2.546875 5.734375q1.15625 -2.59375 2.546875 -5.734375q1.390625 -3.15625 2.875 -6.296875q1.5 -3.140625 2.984375 -6.015625q1.484375 -2.890625 2.78125 -5.0l4.078125 0q1.640625 16.078125 2.453125 33.265625l-4.5625 0q-0.234375 -6.71875 -0.578125 -13.3125q-0.328125 -6.609375 -0.859375 -12.265625q-0.484375 0.8125 -1.28125 2.34375q-0.78125 1.53125 -1.703125 3.484375q-0.90625 1.9375 -1.9375 4.125q-1.03125 2.1875 -1.953125 4.25q-0.90625 2.0625 -1.703125 3.84375q-0.78125 1.765625 -1.265625 2.921875l-3.734375 0zm31.04248 4.609375l-4.453125 0l0 -24.953125l4.453125 0l0 24.953125zm-2.25 -29.46875q-1.203125 0 -2.046875 -0.796875q-0.828125 -0.796875 -0.828125 -2.140625q0 -1.34375 0.828125 -2.125q0.84375 -0.796875 2.046875 -0.796875q1.203125 0 2.03125 0.796875q0.84375 0.78125 0.84375 2.125q0 1.34375 -0.84375 2.140625q-0.828125 0.796875 -2.03125 0.796875zm26.065918 9.78125q-0.8125 -0.671875 -2.359375 -1.28125q-1.53125 -0.625 -3.359375 -0.625q-1.90625 0 -3.28125 0.703125q-1.375 0.6875 -2.234375 1.90625q-0.859375 1.21875 -1.25 2.90625q-0.375 1.671875 -0.375 3.59375q0 4.375 2.15625 6.75q2.15625 2.375 5.765625 2.375q1.8125 0 3.03125 -0.171875q1.234375 -0.171875 1.90625 -0.359375l0 -15.796875zm0 -16.796875l4.46875 -0.765625l0 36.53125q-1.546875 0.4375 -3.953125 0.859375q-2.390625 0.4375 -5.515625 0.4375q-2.875 0 -5.1875 -0.90625q-2.296875 -0.921875 -3.9375 -2.59375q-1.625 -1.6875 -2.515625 -4.109375q-0.875 -2.421875 -0.875 -5.453125q0 -2.875 0.734375 -5.265625q0.75 -2.40625 2.1875 -4.125q1.4375 -1.734375 3.515625 -2.6875q2.09375 -0.96875 4.796875 -0.96875q2.15625 0 3.8125 0.578125q1.65625 0.5625 2.46875 1.09375l0 -12.625zm16.600159 36.484375l-4.453125 0l0 -24.953125l4.453125 0l0 24.953125zm-2.25 -29.46875q-1.203125 0 -2.046875 -0.796875q-0.828125 -0.796875 -0.828125 -2.140625q0 -1.34375 0.828125 -2.125q0.84375 -0.796875 2.046875 -0.796875q1.203125 0 2.03125 0.796875q0.84375 0.78125 0.84375 2.125q0 1.34375 -0.84375 2.140625q-0.828125 0.796875 -2.03125 0.796875zm25.200806 4.515625l9.453125 0l0 3.734375l-9.453125 0l0 11.515625q0 1.875 0.28125 3.109375q0.296875 1.21875 0.875 1.921875q0.578125 0.6875 1.4375 0.984375q0.859375 0.28125 2.015625 0.28125q2.015625 0 3.234375 -0.453125q1.234375 -0.453125 1.703125 -0.65625l0.875 3.703125q-0.671875 0.328125 -2.359375 0.828125q-1.671875 0.515625 -3.84375 0.515625q-2.53125 0 -4.1875 -0.640625q-1.65625 -0.65625 -2.671875 -1.953125q-1.0 -1.296875 -1.421875 -3.1875q-0.40625 -1.90625 -0.40625 -4.390625l0 -22.28125l4.46875 -0.765625l0 7.734375zm36.4834 12.46875q0 2.984375 -0.875 5.390625q-0.859375 2.390625 -2.421875 4.125q-1.546875 1.71875 -3.71875 2.65625q-2.15625 0.9375 -4.703125 0.9375q-2.546875 0 -4.703125 -0.9375q-2.15625 -0.9375 -3.71875 -2.65625q-1.5625 -1.734375 -2.421875 -4.125q-0.859375 -2.40625 -0.859375 -5.390625q0 -2.921875 0.859375 -5.34375q0.859375 -2.421875 2.421875 -4.15625q1.5625 -1.734375 3.71875 -2.65625q2.15625 -0.9375 4.703125 -0.9375q2.546875 0 4.703125 0.9375q2.171875 0.921875 3.71875 2.65625q1.5625 1.734375 2.421875 4.15625q0.875 2.421875 0.875 5.34375zm-4.65625 0q0 -4.21875 -1.90625 -6.6875q-1.890625 -2.46875 -5.15625 -2.46875q-3.265625 0 -5.15625 2.46875q-1.890625 2.46875 -1.890625 6.6875q0 4.234375 1.890625 6.703125q1.890625 2.46875 5.15625 2.46875q3.265625 0 5.15625 -2.46875q1.90625 -2.46875 1.90625 -6.703125z" fill-rule="nonzero"/><path fill="#000000" d="m443.304 116.45451q-2.015625 6.4375 -4.078125 11.90625q-2.0625 5.46875 -4.125 10.65625l-4.65625 0q-2.546875 -7.34375 -4.484375 -15.5q-1.9375 -8.15625 -3.625 -17.765625l4.890625 0q0.671875 3.75 1.390625 7.5q0.734375 3.734375 1.5 7.265625q0.765625 3.53125 1.53125 6.75q0.765625 3.203125 1.578125 5.9375q1.921875 -5.03125 4.078125 -11.046875q2.171875 -6.03125 4.046875 -12.46875l4.03125 0q1.859375 6.4375 4.0625 12.46875q2.21875 6.015625 4.140625 11.046875q0.765625 -2.6875 1.53125 -5.890625q0.765625 -3.21875 1.515625 -6.75q0.75 -3.53125 1.46875 -7.296875q0.71875 -3.765625 1.390625 -7.515625l4.75 0q-1.734375 9.609375 -3.6875 17.765625q-1.9375 8.15625 -4.421875 15.5l-4.65625 0q-2.109375 -5.1875 -4.125 -10.65625q-2.015625 -5.46875 -4.046875 -11.90625zm47.09857 10.078125q0 2.984375 -0.875 5.390625q-0.859375 2.390625 -2.421875 4.125q-1.546875 1.71875 -3.71875 2.65625q-2.15625 0.9375 -4.703125 0.9375q-2.546875 0 -4.703125 -0.9375q-2.15625 -0.9375 -3.71875 -2.65625q-1.5625 -1.734375 -2.421875 -4.125q-0.859375 -2.40625 -0.859375 -5.390625q0 -2.921875 0.859375 -5.34375q0.859375 -2.421875 2.421875 -4.15625q1.5625 -1.734375 3.71875 -2.65625q2.15625 -0.9375 4.703125 -0.9375q2.546875 0 4.703125 0.9375q2.171875 0.921875 3.71875 2.65625q1.5625 1.734375 2.421875 4.15625q0.875 2.421875 0.875 5.34375zm-4.65625 0q0 -4.21875 -1.90625 -6.6875q-1.890625 -2.46875 -5.15625 -2.46875q-3.265625 0 -5.15625 2.46875q-1.890625 2.46875 -1.890625 6.6875q0 4.234375 1.890625 6.703125q1.890625 2.46875 5.15625 2.46875q3.265625 0 5.15625 -2.46875q1.90625 -2.46875 1.90625 -6.703125zm20.163818 -13.0q0.5625 0 1.3125 0.078125q0.75 0.0625 1.46875 0.1875q0.71875 0.109375 1.3125 0.234375q0.609375 0.125 0.890625 0.21875l-0.765625 3.890625q-0.53125 -0.203125 -1.765625 -0.453125q-1.21875 -0.265625 -3.125 -0.265625q-1.25 0 -2.484375 0.265625q-1.21875 0.25 -1.609375 0.359375l0 20.96875l-4.453125 0l0 -23.90625q1.578125 -0.578125 3.921875 -1.078125q2.359375 -0.5 5.296875 -0.5zm25.434296 5.796875q-0.8125 -0.671875 -2.359375 -1.28125q-1.53125 -0.625 -3.359375 -0.625q-1.90625 0 -3.28125 0.703125q-1.375 0.6875 -2.234375 1.90625q-0.859375 1.21875 -1.25 2.90625q-0.375 1.671875 -0.375 3.59375q0 4.375 2.15625 6.75q2.15625 2.375 5.765625 2.375q1.8125 0 3.03125 -0.171875q1.234375 -0.171875 1.90625 -0.359375l0 -15.796875zm0 -16.796875l4.46875 -0.765625l0 36.53125q-1.546875 0.4375 -3.953125 0.859375q-2.390625 0.4375 -5.515625 0.4375q-2.875 0 -5.1875 -0.90625q-2.296875 -0.921875 -3.9375 -2.59375q-1.625 -1.6875 -2.515625 -4.109375q-0.875 -2.421875 -0.875 -5.453125q0 -2.875 0.734375 -5.265625q0.75 -2.40625 2.1875 -4.125q1.4375 -1.734375 3.515625 -2.6875q2.09375 -0.96875 4.796875 -0.96875q2.15625 0 3.8125 0.578125q1.65625 0.5625 2.46875 1.09375l0 -12.625zm17.943909 33.265625q2.75 0 4.0625 -0.71875q1.328125 -0.71875 1.328125 -2.296875q0 -1.640625 -1.296875 -2.59375q-1.296875 -0.96875 -4.28125 -2.15625q-1.4375 -0.578125 -2.765625 -1.171875q-1.3125 -0.609375 -2.28125 -1.421875q-0.953125 -0.828125 -1.53125 -1.96875q-0.578125 -1.15625 -0.578125 -2.84375q0 -3.3125 2.453125 -5.25q2.453125 -1.9375 6.671875 -1.9375q1.0625 0 2.109375 0.125q1.0625 0.109375 1.96875 0.28125q0.921875 0.15625 1.609375 0.359375q0.703125 0.1875 1.078125 0.328125l-0.8125 3.84375q-0.71875 -0.390625 -2.265625 -0.796875q-1.53125 -0.40625 -3.6875 -0.40625q-1.875 0 -3.265625 0.75q-1.390625 0.734375 -1.390625 2.328125q0 0.8125 0.3125 1.4375q0.3125 0.625 0.953125 1.125q0.65625 0.5 1.609375 0.9375q0.96875 0.4375 2.3125 0.90625q1.78125 0.671875 3.171875 1.328125q1.390625 0.640625 2.375 1.515625q0.984375 0.859375 1.5 2.09375q0.53125 1.21875 0.53125 2.984375q0 3.46875 -2.5625 5.25q-2.5625 1.765625 -7.328125 1.765625q-3.296875 0 -5.171875 -0.5625q-1.875 -0.546875 -2.546875 -0.828125l0.8125 -3.84375q0.765625 0.28125 2.4375 0.859375q1.6875 0.578125 4.46875 0.578125z" fill-rule="nonzero"/><path fill="#d9d2e9" d="m288.18896 296.33636l0 0c0 -11.637329 9.43396 -21.071259 21.07129 -21.071259l367.40076 0c5.58844 0 10.947998 2.2200012 14.899658 6.171631c3.9515991 3.9516296 6.171631 9.311188 6.171631 14.899628l0 84.28262c0 11.63736 -9.43396 21.07129 -21.07129 21.07129l-367.40076 0c-11.637329 0 -21.07129 -9.433929 -21.07129 -21.07129z" fill-rule="evenodd"/><path fill="#000000" d="m399.51175 293.29205l0 4.03125l-10.46875 0l0 29.234375l-4.65625 0l0 -29.234375l-10.46875 0l0 -4.03125l25.59375 0zm11.903198 7.78125q0.5625 0 1.3125 0.078125q0.75 0.0625 1.46875 0.1875q0.71875 0.109375 1.3125 0.234375q0.609375 0.125 0.890625 0.21875l-0.765625 3.890625q-0.53125 -0.203125 -1.765625 -0.453125q-1.21875 -0.265625 -3.125 -0.265625q-1.25 0 -2.484375 0.265625q-1.21875 0.25 -1.609375 0.359375l0 20.96875l-4.453125 0l0 -23.90625q1.578125 -0.578125 3.921875 -1.078125q2.359375 -0.5 5.296875 -0.5zm17.746765 22.265625q1.59375 0 2.8125 -0.0625q1.21875 -0.078125 2.046875 -0.265625l0 -7.4375q-0.484375 -0.25 -1.5625 -0.40625q-1.078125 -0.171875 -2.625 -0.171875q-1.0 0 -2.125 0.140625q-1.125 0.140625 -2.0625 0.59375q-0.9375 0.453125 -1.5625 1.25q-0.625 0.796875 -0.625 2.09375q0 2.390625 1.53125 3.328125q1.53125 0.9375 4.171875 0.9375zm-0.375 -22.359375q2.6875 0 4.53125 0.703125q1.84375 0.6875 2.96875 1.96875q1.140625 1.265625 1.609375 3.015625q0.484375 1.75 0.484375 3.859375l0 15.59375q-0.578125 0.09375 -1.609375 0.265625q-1.03125 0.171875 -2.328125 0.3125q-1.296875 0.140625 -2.8125 0.265625q-1.5 0.125 -2.984375 0.125q-2.125 0 -3.90625 -0.4375q-1.765625 -0.4375 -3.0625 -1.359375q-1.296875 -0.9375 -2.015625 -2.46875q-0.71875 -1.546875 -0.71875 -3.703125q0 -2.0625 0.84375 -3.546875q0.84375 -1.5 2.28125 -2.40625q1.4375 -0.90625 3.359375 -1.34375q1.921875 -0.4375 4.03125 -0.4375q0.671875 0 1.390625 0.078125q0.71875 0.0625 1.359375 0.1875q0.65625 0.125 1.125 0.21875q0.484375 0.09375 0.6875 0.140625l0 -1.25q0 -1.09375 -0.25 -2.171875q-0.234375 -1.09375 -0.859375 -1.921875q-0.625 -0.84375 -1.703125 -1.34375q-1.078125 -0.515625 -2.8125 -0.515625q-2.203125 0 -3.859375 0.3125q-1.65625 0.3125 -2.46875 0.65625l-0.53125 -3.703125q0.859375 -0.375 2.875 -0.734375q2.015625 -0.359375 4.375 -0.359375zm21.446655 25.578125l-4.453125 0l0 -24.953125l4.453125 0l0 24.953125zm-2.25 -29.46875q-1.203125 0 -2.046875 -0.796875q-0.828125 -0.796875 -0.828125 -2.140625q0 -1.34375 0.828125 -2.125q0.84375 -0.796875 2.046875 -0.796875q1.203125 0 2.03125 0.796875q0.84375 0.78125 0.84375 2.125q0 1.34375 -0.84375 2.140625q-0.828125 0.796875 -2.03125 0.796875zm9.940918 5.234375q1.53125 -0.390625 4.078125 -0.8125q2.546875 -0.4375 5.859375 -0.4375q2.96875 0 4.9375 0.84375q1.96875 0.828125 3.140625 2.34375q1.1875 1.515625 1.65625 3.625q0.484375 2.109375 0.484375 4.65625l0 14.015625l-4.46875 0l0 -13.0625q0 -2.296875 -0.3125 -3.921875q-0.3125 -1.640625 -1.03125 -2.640625q-0.71875 -1.015625 -1.921875 -1.46875q-1.1875 -0.453125 -2.96875 -0.453125q-0.71875 0 -1.484375 0.046875q-0.765625 0.046875 -1.46875 0.125q-0.703125 0.0625 -1.25 0.15625q-0.546875 0.09375 -0.796875 0.140625l0 21.078125l-4.453125 0l0 -24.234375zm58.93698 20.203125l0 4.03125l-20.015656 0l0 -33.265625l4.65625 0l0 29.234375l15.3594055 0zm13.302795 0.71875q7.296875 0 7.296875 -4.984375q0 -1.546875 -0.65625 -2.625q-0.640625 -1.078125 -1.75 -1.859375q-1.109375 -0.796875 -2.53125 -1.375q-1.40625 -0.578125 -2.984375 -1.15625q-1.828125 -0.625 -3.46875 -1.40625q-1.625 -0.796875 -2.828125 -1.875q-1.1875 -1.09375 -1.890625 -2.578125q-0.6875 -1.484375 -0.6875 -3.59375q0 -4.375 2.96875 -6.8125q2.96875 -2.453125 8.203125 -2.453125q3.03125 0 5.5 0.65625q2.46875 0.640625 3.625 1.40625l-1.484375 3.796875q-1.015625 -0.625 -3.015625 -1.21875q-1.984375 -0.609375 -4.625 -0.609375q-1.34375 0 -2.5 0.296875q-1.140625 0.28125 -2.015625 0.859375q-0.859375 0.578125 -1.359375 1.46875q-0.5 0.875 -0.5 2.078125q0 1.34375 0.515625 2.265625q0.53125 0.90625 1.484375 1.609375q0.96875 0.6875 2.234375 1.265625q1.28125 0.578125 2.8125 1.140625q2.171875 0.875 3.96875 1.734375q1.796875 0.859375 3.109375 2.0625q1.328125 1.203125 2.046875 2.859375q0.71875 1.65625 0.71875 4.0q0 4.375 -3.203125 6.734375q-3.1875 2.34375 -8.984375 2.34375q-1.96875 0 -3.625 -0.265625q-1.65625 -0.265625 -2.953125 -0.625q-1.296875 -0.359375 -2.234375 -0.765625q-0.9375 -0.40625 -1.46875 -0.6875l1.390625 -3.84375q1.109375 0.625 3.359375 1.390625q2.265625 0.765625 5.53125 0.765625zm40.03607 -29.953125l0 4.03125l-10.46875 0l0 29.234375l-4.65625 0l0 -29.234375l-10.46875 0l0 -4.03125l25.59375 0zm19.823181 28.65625q-0.484375 -1.15625 -1.28125 -2.921875q-0.796875 -1.78125 -1.703125 -3.84375q-0.90625 -2.0625 -1.9375 -4.25q-1.03125 -2.1875 -1.953125 -4.125q-0.90625 -1.953125 -1.703125 -3.484375q-0.78125 -1.53125 -1.265625 -2.34375q-0.53125 5.65625 -0.875 12.265625q-0.328125 6.59375 -0.5625 13.3125l-4.5625 0q0.1875 -4.3125 0.421875 -8.703125q0.25 -4.40625 0.5625 -8.640625q0.3125 -4.25 0.671875 -8.28125q0.359375 -4.03125 0.78125 -7.640625l4.09375 0q1.296875 2.109375 2.78125 5.0q1.484375 2.875 2.96875 6.015625q1.484375 3.140625 2.875 6.296875q1.40625 3.140625 2.546875 5.734375q1.15625 -2.59375 2.546875 -5.734375q1.390625 -3.15625 2.875 -6.296875q1.5 -3.140625 2.984375 -6.015625q1.484375 -2.890625 2.78125 -5.0l4.078125 0q1.640625 16.078125 2.453125 33.265625l-4.5625 0q-0.234375 -6.71875 -0.578125 -13.3125q-0.328125 -6.609375 -0.859375 -12.265625q-0.484375 0.8125 -1.28125 2.34375q-0.78125 1.53125 -1.703125 3.484375q-0.90625 1.9375 -1.9375 4.125q-1.03125 2.1875 -1.953125 4.25q-0.90625 2.0625 -1.703125 3.84375q-0.78125 1.765625 -1.265625 2.921875l-3.734375 0z" fill-rule="nonzero"/><path fill="#000000" d="m442.85498 379.94833q-0.484375 -1.15625 -1.28125 -2.921875q-0.796875 -1.78125 -1.703125 -3.84375q-0.90625 -2.0625 -1.9375 -4.25q-1.03125 -2.1875 -1.953125 -4.125q-0.90625 -1.953125 -1.703125 -3.484375q-0.78125 -1.53125 -1.265625 -2.34375q-0.53125 5.65625 -0.875 12.265625q-0.328125 6.59375 -0.5625 13.3125l-4.5625 0q0.1875 -4.3125 0.421875 -8.703125q0.25 -4.40625 0.5625 -8.640625q0.3125 -4.25 0.671875 -8.28125q0.359375 -4.03125 0.78125 -7.640625l4.09375 0q1.296875 2.109375 2.78125 5.0q1.484375 2.875 2.96875 6.015625q1.484375 3.140625 2.875 6.296875q1.40625 3.140625 2.546875 5.734375q1.15625 -2.59375 2.546875 -5.734375q1.390625 -3.15625 2.875 -6.296875q1.5 -3.140625 2.984375 -6.015625q1.484375 -2.890625 2.78125 -5.0l4.078125 0q1.640625 16.078125 2.453125 33.265625l-4.5625 0q-0.234375 -6.71875 -0.578125 -13.3125q-0.328125 -6.609375 -0.859375 -12.265625q-0.484375 0.8125 -1.28125 2.34375q-0.78125 1.53125 -1.703125 3.484375q-0.90625 1.9375 -1.9375 4.125q-1.03125 2.1875 -1.953125 4.25q-0.90625 2.0625 -1.703125 3.84375q-0.78125 1.765625 -1.265625 2.921875l-3.734375 0zm48.620605 -7.875q0 2.984375 -0.875 5.390625q-0.859375 2.390625 -2.421875 4.125q-1.546875 1.71875 -3.71875 2.65625q-2.15625 0.9375 -4.703125 0.9375q-2.546875 0 -4.703125 -0.9375q-2.15625 -0.9375 -3.71875 -2.65625q-1.5625 -1.734375 -2.421875 -4.125q-0.859375 -2.40625 -0.859375 -5.390625q0 -2.921875 0.859375 -5.34375q0.859375 -2.421875 2.421875 -4.15625q1.5625 -1.734375 3.71875 -2.65625q2.15625 -0.9375 4.703125 -0.9375q2.546875 0 4.703125 0.9375q2.171875 0.921875 3.71875 2.65625q1.5625 1.734375 2.421875 4.15625q0.875 2.421875 0.875 5.34375zm-4.65625 0q0 -4.21875 -1.90625 -6.6875q-1.890625 -2.46875 -5.15625 -2.46875q-3.265625 0 -5.15625 2.46875q-1.890625 2.46875 -1.890625 6.6875q0 4.234375 1.890625 6.703125q1.890625 2.46875 5.15625 2.46875q3.265625 0 5.15625 -2.46875q1.90625 -2.46875 1.90625 -6.703125zm27.070068 -7.203125q-0.8125 -0.671875 -2.3594055 -1.28125q-1.53125 -0.625 -3.359375 -0.625q-1.90625 0 -3.28125 0.703125q-1.375 0.6875 -2.234375 1.90625q-0.859375 1.21875 -1.25 2.90625q-0.375 1.671875 -0.375 3.59375q0 4.375 2.15625 6.75q2.15625 2.375 5.765625 2.375q1.8125 0 3.03125 -0.171875q1.2344055 -0.171875 1.9062805 -0.359375l0 -15.796875zm0 -16.796875l4.46875 -0.765625l0 36.53125q-1.546875 0.4375 -3.953125 0.859375q-2.390625 0.4375 -5.5156555 0.4375q-2.875 0 -5.1875 -0.90625q-2.296875 -0.921875 -3.9375 -2.59375q-1.625 -1.6875 -2.515625 -4.109375q-0.875 -2.421875 -0.875 -5.453125q0 -2.875 0.734375 -5.265625q0.75 -2.40625 2.1875 -4.125q1.4375 -1.734375 3.515625 -2.6875q2.09375 -0.96875 4.796875 -0.96875q2.15625 0 3.8125 0.578125q1.6562805 0.5625 2.4687805 1.09375l0 -12.625zm10.756409 24.046875q0 -3.3125 0.953125 -5.78125q0.96875 -2.46875 2.546875 -4.09375q1.578125 -1.640625 3.640625 -2.453125q2.0625 -0.8125 4.234375 -0.8125q5.03125 0 7.71875 3.140625q2.6875 3.140625 2.6875 9.578125q0 0.28125 0 0.75q0 0.453125 -0.046875 0.828125l-17.078125 0q0.28125 3.890625 2.25 5.90625q1.96875 2.015625 6.140625 2.015625q2.359375 0 3.96875 -0.40625q1.609375 -0.40625 2.421875 -0.796875l0.625 3.75q-0.8125 0.421875 -2.859375 0.90625q-2.046875 0.484375 -4.625 0.484375q-3.265625 0 -5.640625 -0.984375q-2.375 -0.984375 -3.921875 -2.703125q-1.53125 -1.734375 -2.28125 -4.109375q-0.734375 -2.375 -0.734375 -5.21875zm17.125 -2.4375q0.046875 -3.03125 -1.515625 -4.96875q-1.546875 -1.953125 -4.28125 -1.953125q-1.546875 0 -2.71875 0.609375q-1.171875 0.59375 -2.0 1.5625q-0.8125 0.953125 -1.265625 2.203125q-0.453125 1.25 -0.59375 2.546875l12.375 0zm18.582092 15.359375q-4.125 -0.09375 -5.859375 -1.765625q-1.71875 -1.6875 -1.71875 -5.25l0 -29.953125l4.453125 -0.765625l0 30.0q0 1.109375 0.1875 1.828125q0.203125 0.71875 0.625 1.15625q0.4375 0.421875 1.15625 0.640625q0.71875 0.21875 1.78125 0.359375l-0.625 3.75z" fill-rule="nonzero"/><path fill="#ead1dc" d="m292.063 522.0634l0 0c0 -11.63736 9.433929 -21.07129 21.07129 -21.07129l359.6527 0c5.58844 0 10.947998 2.2200012 14.899658 6.171631c3.9515991 3.9516296 6.171631 9.311218 6.171631 14.899658l0 84.28259c0 11.63739 -9.43396 21.07129 -21.07129 21.07129l-359.6527 0c-11.63736 0 -21.07129 -9.433899 -21.07129 -21.07129z" fill-rule="evenodd"/><path fill="#000000" d="m347.88577 535.9097l4.65625 0l0 15.5625q-0.578125 0.1875 -1.65625 0.4375q-1.078125 0.234375 -2.5 0.46875q-1.421875 0.25 -3.109375 0.40625q-1.671875 0.171875 -3.390625 0.171875q-3.515625 0 -6.390625 -1.140625q-2.875 -1.15625 -4.9375 -3.359375q-2.0625 -2.21875 -3.203125 -5.4375q-1.125 -3.21875 -1.125 -7.390625q0 -4.171875 1.265625 -7.40625q1.28125 -3.25 3.4375 -5.453125q2.15625 -2.21875 5.0625 -3.359375q2.90625 -1.15625 6.21875 -1.15625q2.265625 0 4.015625 0.296875q1.75 0.28125 3.0 0.671875q1.25 0.375 2.03125 0.765625q0.796875 0.375 1.078125 0.5625l-1.484375 3.890625q-1.390625 -0.90625 -3.703125 -1.5q-2.296875 -0.609375 -4.6875 -0.609375q-2.546875 0 -4.640625 0.921875q-2.09375 0.90625 -3.5625 2.640625q-1.453125 1.71875 -2.265625 4.1875q-0.8125 2.46875 -0.8125 5.546875q0 2.96875 0.6875 5.421875q0.703125 2.453125 2.109375 4.203125q1.421875 1.75 3.5 2.71875q2.09375 0.953125 4.921875 0.953125q2.015625 0 3.4375 -0.21875q1.421875 -0.21875 2.046875 -0.40625l0 -12.390625zm10.271698 3.9375q0 -3.3125 0.953125 -5.78125q0.96875 -2.46875 2.546875 -4.09375q1.578125 -1.640625 3.640625 -2.453125q2.0625 -0.8125 4.234375 -0.8125q5.03125 0 7.71875 3.140625q2.6875 3.140625 2.6875 9.578125q0 0.28125 0 0.75q0 0.453125 -0.046875 0.828125l-17.078125 0q0.28125 3.890625 2.25 5.90625q1.96875 2.015625 6.140625 2.015625q2.359375 0 3.96875 -0.40625q1.609375 -0.40625 2.421875 -0.796875l0.625 3.75q-0.8125 0.421875 -2.859375 0.90625q-2.046875 0.484375 -4.625 0.484375q-3.265625 0 -5.640625 -0.984375q-2.375 -0.984375 -3.921875 -2.703125q-1.53125 -1.734375 -2.28125 -4.109375q-0.734375 -2.375 -0.734375 -5.21875zm17.125 -2.4375q0.046875 -3.03125 -1.515625 -4.96875q-1.546875 -1.953125 -4.28125 -1.953125q-1.546875 0 -2.71875 0.609375q-1.171875 0.59375 -2.0 1.5625q-0.8125 0.953125 -1.265625 2.203125q-0.453125 1.25 -0.59375 2.546875l12.375 0zm11.097687 -9.359375q1.53125 -0.390625 4.078125 -0.8125q2.546875 -0.4375 5.859375 -0.4375q2.96875 0 4.9375 0.84375q1.96875 0.828125 3.140625 2.34375q1.1875 1.515625 1.65625 3.625q0.484375 2.109375 0.484375 4.65625l0 14.015625l-4.46875 0l0 -13.0625q0 -2.296875 -0.3125 -3.921875q-0.3125 -1.640625 -1.03125 -2.640625q-0.71875 -1.015625 -1.921875 -1.46875q-1.1875 -0.453125 -2.96875 -0.453125q-0.71875 0 -1.484375 0.046875q-0.765625 0.046875 -1.46875 0.125q-0.703125 0.0625 -1.25 0.15625q-0.546875 0.09375 -0.796875 0.140625l0 21.078125l-4.453125 0l0 -24.234375zm26.161438 11.796875q0 -3.3125 0.953125 -5.78125q0.96875 -2.46875 2.546875 -4.09375q1.578125 -1.640625 3.640625 -2.453125q2.0625 -0.8125 4.234375 -0.8125q5.03125 0 7.71875 3.140625q2.6875 3.140625 2.6875 9.578125q0 0.28125 0 0.75q0 0.453125 -0.046875 0.828125l-17.078125 0q0.28125 3.890625 2.25 5.90625q1.96875 2.015625 6.140625 2.015625q2.359375 0 3.96875 -0.40625q1.609375 -0.40625 2.421875 -0.796875l0.625 3.75q-0.8125 0.421875 -2.859375 0.90625q-2.046875 0.484375 -4.625 0.484375q-3.265625 0 -5.640625 -0.984375q-2.375 -0.984375 -3.921875 -2.703125q-1.53125 -1.734375 -2.28125 -4.109375q-0.734375 -2.375 -0.734375 -5.21875zm17.125 -2.4375q0.046875 -3.03125 -1.515625 -4.96875q-1.546875 -1.953125 -4.28125 -1.953125q-1.546875 0 -2.71875 0.609375q-1.171875 0.59375 -2.0 1.5625q-0.8125 0.953125 -1.265625 2.203125q-0.453125 1.25 -0.59375 2.546875l12.375 0zm20.316437 -10.609375q0.5625 0 1.3125 0.078125q0.75 0.0625 1.46875 0.1875q0.71875 0.109375 1.3125 0.234375q0.609375 0.125 0.890625 0.21875l-0.765625 3.890625q-0.53125 -0.203125 -1.765625 -0.453125q-1.21875 -0.265625 -3.125 -0.265625q-1.25 0 -2.484375 0.265625q-1.21875 0.25 -1.609375 0.359375l0 20.96875l-4.453125 0l0 -23.90625q1.578125 -0.578125 3.921875 -1.078125q2.359375 -0.5 5.296875 -0.5zm17.746765 22.265625q1.59375 0 2.8125 -0.0625q1.21875 -0.078125 2.046875 -0.265625l0 -7.4375q-0.484375 -0.25 -1.5625 -0.40625q-1.078125 -0.171875 -2.625 -0.171875q-1.0 0 -2.125 0.140625q-1.125 0.140625 -2.0625 0.59375q-0.9375 0.453125 -1.5625 1.25q-0.625 0.796875 -0.625 2.09375q0 2.390625 1.53125 3.328125q1.53125 0.9375 4.171875 0.9375zm-0.375 -22.359375q2.6875 0 4.53125 0.703125q1.84375 0.6875 2.96875 1.96875q1.140625 1.265625 1.609375 3.015625q0.484375 1.75 0.484375 3.859375l0 15.59375q-0.578125 0.09375 -1.609375 0.265625q-1.03125 0.171875 -2.328125 0.3125q-1.296875 0.140625 -2.8125 0.265625q-1.5 0.125 -2.984375 0.125q-2.125 0 -3.90625 -0.4375q-1.765625 -0.4375 -3.0625 -1.359375q-1.296875 -0.9375 -2.015625 -2.46875q-0.71875 -1.546875 -0.71875 -3.703125q0 -2.0625 0.84375 -3.546875q0.84375 -1.5 2.28125 -2.40625q1.4375 -0.90625 3.359375 -1.34375q1.921875 -0.4375 4.03125 -0.4375q0.671875 0 1.390625 0.078125q0.71875 0.0625 1.359375 0.1875q0.65625 0.125 1.125 0.21875q0.484375 0.09375 0.6875 0.140625l0 -1.25q0 -1.09375 -0.25 -2.171875q-0.234375 -1.09375 -0.859375 -1.921875q-0.625 -0.84375 -1.703125 -1.34375q-1.078125 -0.515625 -2.8125 -0.515625q-2.203125 0 -3.859375 0.3125q-1.65625 0.3125 -2.46875 0.65625l-0.53125 -3.703125q0.859375 -0.375 2.875 -0.734375q2.015625 -0.359375 4.375 -0.359375zm21.165436 0.625l9.453125 0l0 3.734375l-9.453125 0l0 11.515625q0 1.875 0.28125 3.109375q0.296875 1.21875 0.875 1.921875q0.578125 0.6875 1.4375 0.984375q0.859375 0.28125 2.015625 0.28125q2.015625 0 3.234375 -0.453125q1.234375 -0.453125 1.703125 -0.65625l0.875 3.703125q-0.671875 0.328125 -2.359375 0.828125q-1.671875 0.515625 -3.84375 0.515625q-2.53125 0 -4.1875 -0.640625q-1.65625 -0.65625 -2.671875 -1.953125q-1.0 -1.296875 -1.421875 -3.1875q-0.40625 -1.90625 -0.40625 -4.390625l0 -22.28125l4.46875 -0.765625l0 7.734375zm13.25354 12.515625q0 -3.3125 0.953125 -5.78125q0.96875 -2.46875 2.546875 -4.09375q1.578125 -1.640625 3.640625 -2.453125q2.0625 -0.8125 4.2343445 -0.8125q5.03125 0 7.71875 3.140625q2.6875 3.140625 2.6875 9.578125q0 0.28125 0 0.75q0 0.453125 -0.046875 0.828125l-17.078094 0q0.28125 3.890625 2.25 5.90625q1.96875 2.015625 6.1405945 2.015625q2.359375 0 3.96875 -0.40625q1.609375 -0.40625 2.421875 -0.796875l0.625 3.75q-0.8125 0.421875 -2.859375 0.90625q-2.046875 0.484375 -4.625 0.484375q-3.2655945 0 -5.6405945 -0.984375q-2.375 -0.984375 -3.921875 -2.703125q-1.53125 -1.734375 -2.28125 -4.109375q-0.734375 -2.375 -0.734375 -5.21875zm17.12497 -2.4375q0.046875 -3.03125 -1.515625 -4.96875q-1.546875 -1.953125 -4.28125 -1.953125q-1.5468445 0 -2.7187195 0.609375q-1.171875 0.59375 -2.0 1.5625q-0.8125 0.953125 -1.265625 2.203125q-0.453125 1.25 -0.59375 2.546875l12.3749695 0zm37.40448 10.265625q-0.484375 -1.15625 -1.28125 -2.921875q-0.796875 -1.78125 -1.703125 -3.84375q-0.90625 -2.0625 -1.9375 -4.25q-1.03125 -2.1875 -1.953125 -4.125q-0.90625 -1.953125 -1.703125 -3.484375q-0.78125 -1.53125 -1.265625 -2.34375q-0.53125 5.65625 -0.875 12.265625q-0.328125 6.59375 -0.5625 13.3125l-4.5625 0q0.1875 -4.3125 0.421875 -8.703125q0.25 -4.40625 0.5625 -8.640625q0.3125 -4.25 0.671875 -8.28125q0.359375 -4.03125 0.78125 -7.640625l4.09375 0q1.296875 2.109375 2.78125 5.0q1.484375 2.875 2.96875 6.015625q1.484375 3.140625 2.875 6.296875q1.40625 3.140625 2.546875 5.734375q1.15625 -2.59375 2.546875 -5.734375q1.390625 -3.15625 2.875 -6.296875q1.5 -3.140625 2.984375 -6.015625q1.484375 -2.890625 2.78125 -5.0l4.078125 0q1.640625 16.078125 2.453125 33.265625l-4.5625 0q-0.234375 -6.71875 -0.578125 -13.3125q-0.328125 -6.609375 -0.859375 -12.265625q-0.484375 0.8125 -1.28125 2.34375q-0.78125 1.53125 -1.703125 3.484375q-0.90625 1.9375 -1.9375 4.125q-1.03125 2.1875 -1.953125 4.25q-0.90625 2.0625 -1.703125 3.84375q-0.78125 1.765625 -1.265625 2.921875l-3.734375 0zm46.464355 3.890625q-1.546875 0.375 -4.0625 0.8125q-2.515625 0.4375 -5.828125 0.4375q-2.890625 0 -4.859375 -0.84375q-1.953125 -0.84375 -3.15625 -2.375q-1.203125 -1.53125 -1.734375 -3.625q-0.53125 -2.09375 -0.53125 -4.625l0 -14.015625l4.46875 0l0 13.046875q0 4.5625 1.4375 6.53125q1.4375 1.96875 4.84375 1.96875q0.734375 0 1.5 -0.046875q0.765625 -0.046875 1.4375 -0.109375q0.671875 -0.078125 1.21875 -0.15625q0.5625 -0.078125 0.796875 -0.171875l0 -21.0625l4.46875 0l0 24.234375zm13.473938 -2.5q2.75 0 4.0625 -0.71875q1.328125 -0.71875 1.328125 -2.296875q0 -1.640625 -1.296875 -2.59375q-1.296875 -0.96875 -4.28125 -2.15625q-1.4375 -0.578125 -2.765625 -1.171875q-1.3125 -0.609375 -2.28125 -1.421875q-0.953125 -0.828125 -1.53125 -1.96875q-0.578125 -1.15625 -0.578125 -2.84375q0 -3.3125 2.453125 -5.25q2.453125 -1.9375 6.671875 -1.9375q1.0625 0 2.109375 0.125q1.0625 0.109375 1.96875 0.28125q0.921875 0.15625 1.609375 0.359375q0.703125 0.1875 1.078125 0.328125l-0.8125 3.84375q-0.71875 -0.390625 -2.265625 -0.796875q-1.53125 -0.40625 -3.6875 -0.40625q-1.875 0 -3.265625 0.75q-1.390625 0.734375 -1.390625 2.328125q0 0.8125 0.3125 1.4375q0.3125 0.625 0.953125 1.125q0.65625 0.5 1.609375 0.9375q0.96875 0.4375 2.3125 0.90625q1.78125 0.671875 3.171875 1.328125q1.390625 0.640625 2.375 1.515625q0.984375 0.859375 1.5 2.09375q0.53125 1.21875 0.53125 2.984375q0 3.46875 -2.5625 5.25q-2.5625 1.765625 -7.328125 1.765625q-3.296875 0 -5.171875 -0.5625q-1.875 -0.546875 -2.546875 -0.828125l0.8125 -3.84375q0.765625 0.28125 2.4375 0.859375q1.6875 0.578125 4.46875 0.578125zm20.06427 3.21875l-4.453125 0l0 -24.953125l4.453125 0l0 24.953125zm-2.25 -29.46875q-1.203125 0 -2.046875 -0.796875q-0.828125 -0.796875 -0.828125 -2.140625q0 -1.34375 0.828125 -2.125q0.84375 -0.796875 2.046875 -0.796875q1.203125 0 2.03125 0.796875q0.84375 0.78125 0.84375 2.125q0 1.34375 -0.84375 2.140625q-0.828125 0.796875 -2.03125 0.796875zm20.784668 30.046875q-3.03125 0 -5.3125 -0.953125q-2.265625 -0.96875 -3.828125 -2.6875q-1.5625 -1.734375 -2.328125 -4.109375q-0.765625 -2.375 -0.765625 -5.265625q0 -2.875 0.828125 -5.265625q0.84375 -2.40625 2.375 -4.15625q1.546875 -1.75 3.765625 -2.734375q2.234375 -0.984375 4.984375 -0.984375q1.671875 0 3.34375 0.28125q1.6875 0.28125 3.21875 0.90625l-1.0 3.796875q-1.015625 -0.484375 -2.34375 -0.765625q-1.3125 -0.28125 -2.796875 -0.28125q-3.734375 0 -5.734375 2.359375q-1.984375 2.34375 -1.984375 6.84375q0 2.015625 0.453125 3.703125q0.453125 1.671875 1.4375 2.875q0.984375 1.203125 2.515625 1.859375q1.546875 0.640625 3.75 0.640625q1.78125 0 3.21875 -0.328125q1.4375 -0.34375 2.25 -0.734375l0.625 3.75q-0.390625 0.234375 -1.109375 0.453125q-0.71875 0.21875 -1.625 0.390625q-0.90625 0.171875 -1.953125 0.28125q-1.03125 0.125 -1.984375 0.125z" fill-rule="nonzero"/><path fill="#000000" d="m407.32358 595.92535q0 6.15625 1.78125 11.390625q1.78125 5.21875 5.234375 9.6875l-3.171875 2.15625q-3.75 -4.5625 -6.03125 -10.484375q-2.265625 -5.921875 -2.265625 -12.75q0 -6.8125 2.265625 -12.734375q2.28125 -5.9375 6.03125 -10.484375l3.171875 2.15625q-3.453125 4.46875 -5.234375 9.703125q-1.78125 5.21875 -1.78125 11.359375zm20.302032 -19.234375q7.015625 0 10.78125 2.671875q3.765625 2.65625 3.765625 7.9375q0 2.875 -1.03125 4.921875q-1.03125 2.03125 -2.984375 3.3125q-1.9375 1.265625 -4.71875 1.84375q-2.78125 0.5625 -6.28125 0.5625l-3.703125 0l0 12.34375l-4.65625 0l0 -32.78125q1.96875 -0.484375 4.390625 -0.640625q2.421875 -0.171875 4.4375 -0.171875zm0.390625 4.078125q-2.96875 0 -4.5625 0.140625l0 13.0625l3.5 0q2.40625 0 4.328125 -0.3125q1.921875 -0.3125 3.234375 -1.0625q1.328125 -0.75 2.046875 -2.046875q0.71875 -1.296875 0.71875 -3.3125q0 -1.90625 -0.75 -3.15625q-0.734375 -1.25 -2.015625 -1.984375q-1.265625 -0.75 -2.953125 -1.03125q-1.671875 -0.296875 -3.546875 -0.296875zm28.902802 4.03125q0.5625 0 1.3125 0.078125q0.75 0.0625 1.46875 0.1875q0.71875 0.109375 1.3125 0.234375q0.609375 0.125 0.890625 0.21875l-0.765625 3.890625q-0.53125 -0.203125 -1.765625 -0.453125q-1.21875 -0.265625 -3.125 -0.265625q-1.25 0 -2.484375 0.265625q-1.21875 0.25 -1.609375 0.359375l0 20.96875l-4.453125 0l0 -23.90625q1.578125 -0.578125 3.921875 -1.078125q2.359375 -0.5 5.296875 -0.5zm7.9186707 13.046875q0 -3.3125 0.953125 -5.78125q0.96875 -2.46875 2.546875 -4.09375q1.578125 -1.640625 3.640625 -2.453125q2.0625 -0.8125 4.234375 -0.8125q5.03125 0 7.71875 3.140625q2.6875 3.140625 2.6875 9.578125q0 0.28125 0 0.75q0 0.453125 -0.046875 0.828125l-17.078125 0q0.28125 3.890625 2.25 5.90625q1.96875 2.015625 6.140625 2.015625q2.359375 0 3.96875 -0.40625q1.609375 -0.40625 2.421875 -0.796875l0.625 3.75q-0.8125 0.421875 -2.859375 0.90625q-2.046875 0.484375 -4.625 0.484375q-3.265625 0 -5.640625 -0.984375q-2.375 -0.984375 -3.921875 -2.703125q-1.53125 -1.734375 -2.28125 -4.109375q-0.734375 -2.375 -0.734375 -5.21875zm17.125 -2.4375q0.046875 -3.03125 -1.515625 -4.96875q-1.546875 -1.953125 -4.28125 -1.953125q-1.546875 0 -2.71875 0.609375q-1.171875 0.59375 -2.0 1.5625q-0.8125 0.953125 -1.265625 2.203125q-0.453125 1.25 -0.59375 2.546875l12.375 0zm27.222687 -4.8125q-0.8125 -0.671875 -2.359375 -1.28125q-1.53125 -0.625 -3.359375 -0.625q-1.90625 0 -3.28125 0.703125q-1.375 0.6875 -2.234375 1.90625q-0.859375 1.21875 -1.25 2.90625q-0.375 1.671875 -0.375 3.59375q0 4.375 2.15625 6.75q2.15625 2.375 5.765625 2.375q1.8125 0 3.03125 -0.171875q1.234375 -0.171875 1.90625 -0.359375l0 -15.796875zm0 -16.796875l4.4687195 -0.765625l0 36.53125q-1.546875 0.4375 -3.9530945 0.859375q-2.390625 0.4375 -5.515625 0.4375q-2.875 0 -5.1875 -0.90625q-2.296875 -0.921875 -3.9375 -2.59375q-1.625 -1.6875 -2.515625 -4.109375q-0.875 -2.421875 -0.875 -5.453125q0 -2.875 0.734375 -5.265625q0.75 -2.40625 2.1875 -4.125q1.4375 -1.734375 3.515625 -2.6875q2.09375 -0.96875 4.796875 -0.96875q2.15625 0 3.8125 0.578125q1.65625 0.5625 2.46875 1.09375l0 -12.625zm16.60019 36.484375l-4.453125 0l0 -24.953125l4.453125 0l0 24.953125zm-2.25 -29.46875q-1.203125 0 -2.046875 -0.796875q-0.828125 -0.796875 -0.828125 -2.140625q0 -1.34375 0.828125 -2.125q0.84375 -0.796875 2.046875 -0.796875q1.203125 0 2.03125 0.796875q0.84375 0.78125 0.84375 2.125q0 1.34375 -0.84375 2.140625q-0.828125 0.796875 -2.03125 0.796875zm20.784668 30.046875q-3.03125 0 -5.3125 -0.953125q-2.265625 -0.96875 -3.828125 -2.6875q-1.5625 -1.734375 -2.328125 -4.109375q-0.765625 -2.375 -0.765625 -5.265625q0 -2.875 0.828125 -5.265625q0.84375 -2.40625 2.375 -4.15625q1.546875 -1.75 3.765625 -2.734375q2.234375 -0.984375 4.984375 -0.984375q1.671875 0 3.34375 0.28125q1.6875 0.28125 3.21875 0.90625l-1.0 3.796875q-1.015625 -0.484375 -2.34375 -0.765625q-1.3125 -0.28125 -2.796875 -0.28125q-3.734375 0 -5.734375 2.359375q-1.984375 2.34375 -1.984375 6.84375q0 2.015625 0.453125 3.703125q0.453125 1.671875 1.4375 2.875q0.984375 1.203125 2.515625 1.859375q1.546875 0.640625 3.75 0.640625q1.78125 0 3.21875 -0.328125q1.4375 -0.34375 2.25 -0.734375l0.625 3.75q-0.390625 0.234375 -1.109375 0.453125q-0.71875 0.21875 -1.625 0.390625q-0.90625 0.171875 -1.953125 0.28125q-1.03125 0.125 -1.984375 0.125zm15.648132 -25.53125l9.453125 0l0 3.734375l-9.453125 0l0 11.515625q0 1.875 0.28125 3.109375q0.296875 1.21875 0.875 1.921875q0.578125 0.6875 1.4375 0.984375q0.859375 0.28125 2.015625 0.28125q2.015625 0 3.234375 -0.453125q1.234375 -0.453125 1.703125 -0.65625l0.875 3.703125q-0.671875 0.328125 -2.359375 0.828125q-1.671875 0.515625 -3.84375 0.515625q-2.53125 0 -4.1875 -0.640625q-1.65625 -0.65625 -2.671875 -1.953125q-1.0 -1.296875 -1.421875 -3.1875q-0.40625 -1.90625 -0.40625 -4.390625l0 -22.28125l4.46875 -0.765625l0 7.734375zm18.624146 10.59375q0 -6.140625 -1.78125 -11.359375q-1.765625 -5.234375 -5.21875 -9.703125l3.15625 -2.15625q3.75 4.546875 6.03125 10.484375q2.28125 5.921875 2.28125 12.734375q0 6.828125 -2.28125 12.75q-2.28125 5.921875 -6.03125 10.484375l-3.15625 -2.15625q3.453125 -4.46875 5.21875 -9.6875q1.78125 -5.234375 1.78125 -11.390625z" fill-rule="nonzero"/><path fill="#000000" fill-opacity="0.0" d="m491.02362 156.14961l1.9527588 119.11812" fill-rule="evenodd"/><path stroke="#b7b7b7" stroke-width="8.0" stroke-linejoin="round" stroke-linecap="butt" d="m491.02362 156.14961l1.1659851 71.12456" fill-rule="evenodd"/><path fill="#b7b7b7" stroke="#b7b7b7" stroke-width="8.0" stroke-linecap="butt" d="m478.9775 227.49075l13.807159 36.083313l12.617004 -36.516495z" fill-rule="evenodd"/><path fill="#000000" fill-opacity="0.0" d="m492.96063 401.69028l0 99.3071" fill-rule="evenodd"/><path stroke="#b7b7b7" stroke-width="8.0" stroke-linejoin="round" stroke-linecap="butt" d="m492.96063 401.69028l0 51.3071" fill-rule="evenodd"/><path fill="#b7b7b7" stroke="#b7b7b7" stroke-width="8.0" stroke-linecap="butt" d="m479.74677 452.99738l13.213867 36.30478l13.213867 -36.30478z" fill-rule="evenodd"/></g></svg>